<!-- If you update this icon, be sure to copy it to the icon in IndexGenerator.cs and regenerate logo.ico -->

<svg xmlns="http://www.w3.org/2000/svg" viewBox="0 0 24 24" width="24" height="24" fill="transparent">
	<path d="M10 4H4a2 2 0 0 0-2 2v12a2 2 0 0 0 2 2h16a2 2 0 0 0 2-2V8a2 2 0 0 0-2-2h-8l-2-2z" fill="#333" stroke="#888" />
	<path d="M7 12h10a0.5 0.5 0 0 1 0 1H7a0.5 0.5 0 0 1 0-1zm2 3h6a0.5 0.5 0 0 1 0 1H9a0.5 0.5 0 0 1 0-1z" fill="#fff"/>
	<path d="M5 9h14a0.5 0.5 0 0 1 0 1H5a0.5 0.5 0 0 1 0-1z" fill="#fff"/>
</svg>
